<svg id="Layer_1" data-name="Layer 1" xmlns="http://www.w3.org/2000/svg" viewBox="0 0 800 800"><defs><style>.cls-1{fill:#fff;}</style></defs><title>Celec_Logo_White</title><path class="cls-1" d="M398.5,117.36S566.18,107.3,638,265.77c0,0,.51,2,4.07,1.52s25.4-4.85,25.4-4.85,4.06-1.27,1.51-9.15-44.2-104.13-168.66-148.22c0,0-138.69-53.23-274.79,40.9s-86.67,244.5-86.67,244.5,46.65,165.36,247.88,174.32c0,0,207.74,19.88,283.21-171.25l-32.1-9.12S617.58,468.79,517,515.63c0,0-156.45,67.73-281-35.31s-52.06-244.88-52.06-244.88S248.34,120,398.5,117.36Z"/><path class="cls-1" d="M533.1,190.41s2.66.57,2.66-4l-4.39-11.81s-1.91-2.09-7,0S455,206.87,434.48,290.73s25.29,149,25.29,149,20.32,28.94,40.86,41.12c0,0-17.57,5.73-23.67,7.64,0,0-2.28,4.2,2.3,4.58s59,11.48,59,11.48l-8.34-56.12s-2-2.36-4.95,0l-8,21s-40.8-22.06-60.28-75c0,0-32.75-73.79,20.77-158A66.22,66.22,0,0,1,486,225.68,195,195,0,0,1,533.1,190.41Z"/><polygon class="cls-1" points="398.09 509.14 398.08 494.91 361.5 494.94 361.35 336.91 397.94 336.88 397.92 323.16 361.34 323.19 361.19 168.21 397.78 168.17 397.77 156.49 331.2 156.55 331.53 509.2 398.09 509.14"/><polygon class="cls-1" points="258.72 357.33 301.92 357.29 301.91 349.54 269.9 349.57 269.85 297.74 258.67 297.75 258.72 357.33"/><polygon class="cls-1" points="198.21 303.16 198.22 322.97 230.24 322.94 230.24 328.25 198.23 328.28 198.25 349.62 230.26 349.59 230.27 357.37 187.06 357.4 187.01 297.8 230.21 297.76 230.22 303.13 198.21 303.16"/><path class="cls-1" d="M240.68,626.66s-9.16-14.22-23.9-16.24-44.7,18.34-52.29,53.41,46.26,20.28,57.43,6.55c0,0,4.57-1.53,2.54,3.55s-9.12,24.4-9.12,24.4-66,30.55-82.84-7.54c0,0-14.29-44.7,42.7-89.25a43.83,43.83,0,0,1,8.13-5c12.11-5.82,43.52-17.24,73.07,2.69l-11.15,25.92S242.71,629.38,240.68,626.66Z"/><path class="cls-1" d="M637,626.3s-9.16-14.22-23.9-16.24-44.7,18.33-52.29,53.4,46.26,20.29,57.43,6.56c0,0,4.57-1.53,2.54,3.55s-9.12,24.4-9.12,24.4-66,30.55-82.84-7.55c0,0-13.55-42.39,38.36-85.74a67.3,67.3,0,0,1,18.91-11.3c14.77-5.7,41.38-11.57,66.64,5.46L641.6,624.77S639.06,629,637,626.3Z"/><polygon class="cls-1" points="276.21 590.55 228.55 704.93 306.3 704.86 313.9 683.51 266.14 683.55 278.81 654.58 324.04 655.04 331.64 632.51 288.96 632.55 296.56 612.38 345.34 613.35 354.98 590.48 276.21 590.55"/><polygon class="cls-1" points="374.79 590.46 327.13 704.84 404.88 704.76 412.48 683.42 364.72 683.46 404.01 590.43 374.79 590.46"/><polygon class="cls-1" points="468.38 590.38 420.72 704.75 498.46 704.68 506.06 683.33 458.3 683.37 470.98 654.4 516.2 654.87 523.8 632.33 481.12 632.37 488.72 612.21 537.51 613.18 547.14 590.3 468.38 590.38"/></svg>